<?xml version="1.0" encoding="utf-8"?>
<!-- Generator: Adobe Illustrator 23.0.1, SVG Export Plug-In . SVG Version: 6.00 Build 0)  -->
<svg version="1.1" id="Layer_1" xmlns="http://www.w3.org/2000/svg" xmlns:xlink="http://www.w3.org/1999/xlink" x="0px" y="0px"
	 viewBox="0 0 24 24" style="enable-background:new 0 0 24 24;" xml:space="preserve">
<style type="text/css">
	.st0{fill:#58595B;}
</style>
<g>
	<g>
		<path class="st0" d="M8.2,18.8c0-1,0-2,0-2.9c0-0.2,0-0.3-0.2-0.3c-0.1,0-0.1-0.1-0.1-0.2c-0.2-0.5-0.4-1-0.6-1.6
			c0-0.1-0.1-0.2-0.2-0.2c-0.5-0.2-1-0.4-1.5-0.6c-0.2-0.1-0.2-0.1-0.2-0.3c0.1-0.6,0.1-1.1,0.2-1.7c0-0.1,0-0.2-0.1-0.3
			c-0.3-0.4-0.7-0.9-1-1.3c-0.1-0.2-0.1-0.2,0-0.4c0.3-0.4,0.7-0.9,1-1.3c0.1-0.1,0.1-0.2,0.1-0.3C5.4,6.9,5.3,6.4,5.2,5.8
			c0-0.2,0-0.2,0.2-0.3c0.5-0.2,1-0.4,1.5-0.6c0.1,0,0.2-0.1,0.2-0.2c0.2-0.5,0.4-1,0.6-1.6C7.8,3,7.9,2.9,8.1,3
			C8.6,3,9.2,3.1,9.8,3.2c0.1,0,0.2,0,0.2-0.1c0.5-0.3,0.9-0.7,1.3-1c0.1-0.1,0.2-0.1,0.3,0c0.4,0.3,0.9,0.7,1.3,1
			c0.1,0.1,0.2,0.1,0.3,0.1C13.8,3.1,14.4,3,14.9,3c0.2,0,0.2,0,0.3,0.2c0.2,0.5,0.4,1,0.6,1.5c0,0.1,0.1,0.2,0.2,0.2
			c0.5,0.2,1,0.4,1.5,0.6c0.1,0.1,0.2,0.1,0.2,0.3c-0.1,0.5-0.1,1.1-0.2,1.6c0,0.1,0,0.2,0.1,0.3c0.3,0.4,0.7,0.9,1,1.3
			c0.1,0.2,0.1,0.2,0,0.4c-0.3,0.4-0.7,0.9-1,1.3c-0.1,0.1-0.1,0.2-0.1,0.3c0.1,0.6,0.1,1.1,0.2,1.7c0,0.1,0,0.2-0.2,0.3
			c-0.5,0.2-1,0.4-1.6,0.6c-0.1,0-0.2,0.1-0.2,0.2c-0.2,0.5-0.4,1-0.6,1.5c0,0.1-0.1,0.2-0.2,0.2c-0.1,0-0.2,0.1-0.2,0.2
			c0,0.4,0,0.9,0,1.3c0,1.5,0,3,0,4.5c0,0,0,0.1,0,0.1c0,0.1,0,0.2-0.1,0.2c-0.1,0-0.2,0-0.2,0c-0.3-0.2-0.6-0.4-1-0.6
			c-0.6-0.4-1.2-0.8-1.9-1.2c-0.1-0.1-0.2-0.1-0.4,0c-0.9,0.6-1.9,1.2-2.8,1.8c0,0-0.1,0.1-0.1,0.1c-0.1,0-0.2-0.1-0.2-0.2
			c0-0.1,0-0.3,0-0.4C8.2,20.5,8.2,19.7,8.2,18.8z M14.7,15.1c0.1,0,0.2-0.1,0.2-0.2c0.2-0.5,0.4-1,0.6-1.4c0-0.1,0.1-0.1,0.2-0.2
			c0.5-0.2,1-0.4,1.4-0.6c0.1-0.1,0.2-0.1,0.2-0.3c-0.1-0.5-0.1-1-0.2-1.5c0-0.1,0-0.2,0.1-0.3c0.3-0.4,0.6-0.8,0.9-1.2
			c0.1-0.2,0.1-0.2,0-0.4c-0.3-0.4-0.6-0.8-0.9-1.2c0-0.1-0.1-0.2-0.1-0.2c0.1-0.5,0.1-1,0.2-1.6c0-0.2,0-0.2-0.2-0.3
			c-0.5-0.2-0.9-0.4-1.4-0.6c-0.1,0-0.2-0.1-0.2-0.2C15.4,4.5,15.2,4,15,3.6c-0.1-0.1-0.1-0.2-0.3-0.2c0,0-0.1,0-0.1,0
			c-0.5,0.1-0.9,0.1-1.4,0.2c-0.1,0-0.2,0-0.3-0.1c-0.4-0.3-0.8-0.6-1.2-0.9c-0.2-0.1-0.2-0.1-0.4,0c-0.4,0.3-0.8,0.6-1.2,0.9
			C10,3.6,9.9,3.6,9.8,3.6c-0.5-0.1-1-0.1-1.4-0.2c-0.2,0-0.2,0-0.3,0.2C7.8,4,7.6,4.5,7.4,5c0,0.1-0.1,0.2-0.2,0.2
			c-0.5,0.2-1,0.4-1.4,0.6C5.7,5.8,5.6,5.9,5.6,6.1c0.1,0.5,0.1,1,0.2,1.6c0,0.1,0,0.2-0.1,0.2C5.5,8.3,5.2,8.7,4.8,9.1
			c-0.1,0.2-0.1,0.2,0,0.4c0.3,0.4,0.6,0.8,0.9,1.2c0.1,0.1,0.1,0.2,0.1,0.3c-0.1,0.5-0.1,1-0.2,1.5c0,0.2,0,0.2,0.2,0.3
			c0.5,0.2,0.9,0.4,1.4,0.6c0.1,0,0.2,0.1,0.2,0.2c0.2,0.5,0.4,1,0.6,1.4c0.1,0.1,0.1,0.2,0.3,0.2c0.5-0.1,1-0.1,1.6-0.2
			c0.1,0,0.2,0,0.3,0.1c0.4,0.3,0.8,0.6,1.2,0.9c0.1,0.1,0.2,0.1,0.4,0c0.4-0.3,0.8-0.6,1.2-0.9c0.1,0,0.1-0.1,0.2-0.1
			c0.2,0,0.4,0,0.5,0.1C14,15,14.4,15.1,14.7,15.1z M14.5,18.4c0-0.9,0-1.8,0-2.6c0-0.2-0.1-0.2-0.2-0.3c-0.3,0-0.7-0.1-1-0.1
			c-0.1,0-0.2,0-0.3,0.1c-0.4,0.3-0.9,0.7-1.3,1c-0.1,0.1-0.2,0.1-0.3,0c-0.4-0.3-0.9-0.7-1.3-1c-0.1-0.1-0.2-0.1-0.3-0.1
			c-0.3,0-0.6,0.1-0.9,0.1c-0.2,0-0.3,0.1-0.3,0.3c0,1.8,0,3.5,0,5.3c0,0.1,0,0.2,0.1,0.2c0.1,0.1,0.2,0,0.3,0
			c0.8-0.5,1.6-1,2.4-1.5c0.1-0.1,0.2-0.1,0.3,0c0.7,0.4,1.3,0.8,2,1.3c0.2,0.1,0.3,0.2,0.5,0.3c0.2,0.1,0.3,0,0.3-0.2
			c0,0,0-0.1,0-0.1C14.5,20.1,14.5,19.2,14.5,18.4z"/>
		<path class="st0" d="M16.1,9.2c0,2.2-1.6,4.1-3.7,4.5c-2.4,0.5-4.8-1.2-5.3-3.6C6.8,9,7,7.9,7.7,6.8C7.7,6.7,7.8,6.6,8,6.7
			C8.1,6.8,8.1,6.9,8,7c-1,1.6-0.8,3.7,0.5,5.1c1.1,1.2,2.5,1.6,4.1,1.1c1.6-0.4,2.6-1.5,3-3.1c0.5-2-0.7-4.1-2.6-4.8
			c0,0-0.1,0-0.1,0c-0.1,0-0.1-0.1-0.1-0.2C12.8,5,12.9,5,13,5c0,0,0.1,0,0.1,0c1.6,0.6,2.5,1.8,2.9,3.4C16,8.7,16,9,16.1,9.2z"/>
		<path class="st0" d="M8.5,5.9c0-0.1,0.1-0.1,0.1-0.2c0.6-0.5,1.2-0.8,2-0.9c0.3-0.1,0.6-0.1,0.9-0.1c0.1,0,0.2,0.1,0.2,0.2
			c0,0.1-0.1,0.2-0.2,0.2c-1,0-1.8,0.3-2.6,0.9C8.8,6.1,8.7,6.1,8.6,6C8.6,6,8.6,5.9,8.5,5.9z"/>
	</g>
</g>
</svg>
