<svg width="42" height="43" viewBox="0 0 42 43" fill="none" xmlns="http://www.w3.org/2000/svg">
<rect x="0.5" y="0.800781" width="41" height="41" rx="20.5" fill="white"/>
<rect x="0.5" y="0.800781" width="41" height="41" rx="20.5" stroke="#E4E5EE"/>
<g clip-path="url(#clip0_704_4540)">
<path d="M26.2338 23.9428C25.8738 23.5588 25.4508 23.3668 24.9648 23.3668C24.4788 23.3668 24.0438 23.5588 23.6598 23.9428L22.4538 25.1488L22.0578 24.9328C21.9258 24.8728 21.8358 24.8248 21.7878 24.7888C20.6598 24.0568 19.6158 23.1088 18.6558 21.9448C18.1878 21.3328 17.8458 20.7928 17.6298 20.3248C17.9178 20.0728 18.2118 19.7848 18.5118 19.4608L18.8358 19.1368C19.2318 18.7288 19.4298 18.2878 19.4298 17.8138C19.4298 17.3398 19.2318 16.9048 18.8358 16.5088L17.7918 15.4648C17.6358 15.3088 17.5218 15.1888 17.4498 15.1048L17.2698 14.9248C17.0418 14.6848 16.8618 14.5108 16.7298 14.4028C16.3578 14.0308 15.9378 13.8448 15.4698 13.8448C15.0018 13.8448 14.5698 14.0308 14.1738 14.4028H14.1558L12.8598 15.7168C12.3798 16.1968 12.1098 16.7848 12.0498 17.4808C11.9658 18.2848 12.1278 19.2208 12.5358 20.2888C12.8358 21.1168 13.2228 21.9268 13.6968 22.7188C14.1708 23.5108 14.7498 24.3208 15.4338 25.1488C17.1138 27.1408 19.0998 28.6948 21.3918 29.8108C22.6278 30.3988 23.7438 30.7288 24.7398 30.8008H24.9738C25.8618 30.8008 26.5938 30.4888 27.1698 29.8648V29.8468C27.2778 29.7148 27.4518 29.5288 27.6918 29.2888L27.8358 29.1448C27.9918 29.0128 28.1598 28.8508 28.3398 28.6588C28.7238 28.2508 28.9158 27.8068 28.9158 27.3268C28.9158 26.8468 28.7178 26.4208 28.3218 26.0488L26.2338 23.9428ZM27.6018 27.9568C27.5418 28.0288 27.4398 28.1308 27.2958 28.2628L27.1338 28.4248C26.8578 28.6768 26.6118 28.9288 26.3958 29.1808C26.0358 29.5768 25.5618 29.7748 24.9738 29.7748H24.7938C23.9178 29.7148 22.9338 29.4208 21.8418 28.8928C19.6698 27.8368 17.7978 26.3728 16.2258 24.5008C15.5778 23.7208 15.0318 22.9618 14.5878 22.2238C14.1438 21.4858 13.7778 20.7268 13.4898 19.9468C13.3098 19.4548 13.1868 19.0198 13.1208 18.6418C13.0548 18.2638 13.0398 17.9008 13.0758 17.5528C13.1118 17.0968 13.2858 16.7248 13.5978 16.4368L14.8938 15.1408C15.0738 14.9608 15.2628 14.8708 15.4608 14.8708C15.6588 14.8708 15.8478 14.9608 16.0278 15.1408C16.1358 15.2368 16.2858 15.3868 16.4778 15.5908L16.8378 15.9508C16.9458 16.0468 17.0238 16.1248 17.0718 16.1848L18.1158 17.2288C18.5118 17.6128 18.5118 18.0028 18.1158 18.3988C18.0438 18.4828 17.9358 18.5968 17.7918 18.7408C17.3718 19.1608 17.0538 19.4668 16.8378 19.6588L16.8198 19.6768C16.5798 19.9168 16.5138 20.2048 16.6218 20.5408V20.5768C16.8858 21.2008 17.2998 21.8668 17.8638 22.5748C18.9078 23.8708 20.0298 24.8968 21.2298 25.6528L21.8058 25.9588C21.9378 26.0188 22.0278 26.0668 22.0758 26.1028L22.1298 26.1388C22.2738 26.1988 22.3938 26.2288 22.4898 26.2288C22.7058 26.2288 22.9038 26.1388 23.0838 25.9588L24.3798 24.6628C24.5718 24.4708 24.7578 24.3748 24.9378 24.3748C25.1178 24.3748 25.3038 24.4708 25.4958 24.6628L27.6018 26.7688C27.9858 27.1408 27.9858 27.5368 27.6018 27.9568ZM21.7338 17.0848C22.7538 17.2528 23.6268 17.6998 24.3528 18.4258C25.0788 19.1518 25.5378 20.0308 25.7298 21.0628C25.7418 21.1828 25.7958 21.2848 25.8918 21.3688C25.9878 21.4528 26.1018 21.4948 26.2338 21.4948L26.3238 21.4768C26.4558 21.4528 26.5638 21.3838 26.6478 21.2698C26.7318 21.1558 26.7618 21.0268 26.7378 20.8828C26.6418 20.2828 26.4528 19.7128 26.1708 19.1728C25.8888 18.6328 25.5318 18.1468 25.0998 17.7148C24.6678 17.2828 24.1788 16.9258 23.6328 16.6438C23.0868 16.3618 22.5138 16.1728 21.9138 16.0768C21.7818 16.0528 21.6558 16.0798 21.5358 16.1578C21.4158 16.2358 21.3438 16.3468 21.3198 16.4908C21.2958 16.6348 21.3228 16.7638 21.4008 16.8778C21.4788 16.9918 21.5898 17.0608 21.7338 17.0848ZM29.9958 20.7388C29.8278 19.7428 29.5128 18.8038 29.0508 17.9218C28.5888 17.0398 27.9978 16.2388 27.2778 15.5188C26.5578 14.7988 25.7568 14.2078 24.8748 13.7458C23.9928 13.2838 23.0538 12.9688 22.0578 12.8008C21.9258 12.7768 21.7998 12.8068 21.6798 12.8908C21.5598 12.9748 21.4878 13.0858 21.4638 13.2238C21.4398 13.3618 21.4698 13.4908 21.5538 13.6108C21.6378 13.7308 21.7518 13.8028 21.8958 13.8268C22.7718 13.9708 23.6088 14.2498 24.4068 14.6638C25.2048 15.0778 25.9248 15.6028 26.5668 16.2388C27.2088 16.8748 27.7338 17.5888 28.1418 18.3808C28.5498 19.1728 28.8318 20.0128 28.9878 20.9008C28.9998 21.0208 29.0538 21.1228 29.1498 21.2068C29.2458 21.2908 29.3598 21.3328 29.4918 21.3328H29.5818C29.7138 21.3088 29.8218 21.2368 29.9058 21.1168C29.9898 20.9968 30.0198 20.8708 29.9958 20.7388Z" fill="#F16521"/>
</g>
<defs>
<clipPath id="clip0_704_4540">
<rect width="18" height="18" fill="white" transform="matrix(1 0 0 -1 12 30.8008)"/>
</clipPath>
</defs>
</svg>
