<svg width="18" height="18" viewBox="0 0 18 18" fill="none" xmlns="http://www.w3.org/2000/svg">
<g clipPath="url(#clip0_704_4671)">
<path d="M9.22759 1.911C8.7176 1.911 8.24443 2.0385 7.80809 2.2935C7.37176 2.5485 7.02609 2.89417 6.77109 3.3305C6.51609 3.76683 6.38859 4.24 6.38859 4.75H4.94359C4.94359 3.97933 5.13343 3.26817 5.51309 2.6165C5.89276 1.96483 6.40843 1.44917 7.06009 1.0695C7.71176 0.689833 8.42293 0.5 9.19359 0.5C9.96426 0.5 10.6754 0.689833 11.3271 1.0695C11.9788 1.44917 12.4944 1.96483 12.8741 2.6165C13.2538 3.26817 13.4436 3.97933 13.4436 4.75H16.2316C16.6396 4.75 16.9853 4.8945 17.2686 5.1835C17.5519 5.4725 17.6936 5.82667 17.6936 6.246C17.6936 6.33667 17.6879 6.42167 17.6766 6.501L16.0956 15.647C16.0049 16.1797 15.7556 16.6217 15.3476 16.973C14.9396 17.3243 14.4693 17.5 13.9366 17.5H4.45059C3.91793 17.5 3.44759 17.3243 3.03959 16.973C2.63159 16.6217 2.38226 16.1797 2.29159 15.647L0.710594 6.518C0.642594 6.11 0.724761 5.736 0.957094 5.396C1.18943 5.056 1.50393 4.84633 1.90059 4.767C1.97993 4.75567 2.06493 4.75 2.15559 4.75H12.0666C12.0666 4.24 11.9391 3.76683 11.6841 3.3305C11.4291 2.89417 11.0834 2.5485 10.6471 2.2935C10.2108 2.0385 9.73759 1.911 9.22759 1.911ZM16.2316 6.161H2.15559C2.14426 6.161 2.12726 6.18367 2.10459 6.229V6.263L3.68559 15.409C3.71959 15.5903 3.79893 15.7433 3.92359 15.868C4.04826 15.9927 4.19559 16.0607 4.36559 16.072L4.45059 16.089H13.9366C14.1066 16.089 14.2624 16.0352 14.4041 15.9275C14.5458 15.8198 14.6393 15.6753 14.6846 15.494L16.2826 6.246C16.2826 6.20067 16.2713 6.178 16.2486 6.178L16.2316 6.161Z" fill="#F16521"/>
</g>
<defs>
<clipPath id="clip0_704_4671">
<rect width="17" height="17" fill="white" transform="matrix(1 0 0 -1 0.660156 17.5)"/>
</clipPath>
</defs>
</svg>
