<svg width="13" height="13" viewBox="0 0 13 13" fill="none" xmlns="http://www.w3.org/2000/svg">
<path d="M6.9426 8.43409C6.8466 8.35409 6.7326 8.31809 6.6006 8.32609C6.4686 8.33409 6.3586 8.38609 6.2706 8.48209L4.4826 10.4861V2.47009C4.4826 2.33409 4.4366 2.21809 4.3446 2.12209C4.2526 2.02609 4.1406 1.97809 4.0086 1.97809C3.8766 1.97809 3.7626 2.02609 3.6666 2.12209C3.5706 2.21809 3.5226 2.33409 3.5226 2.47009V10.4861L1.7466 8.48209C1.6506 8.38609 1.5366 8.33409 1.4046 8.32609C1.2726 8.31809 1.1586 8.35809 1.0626 8.44609C0.966598 8.53409 0.912597 8.64209 0.900598 8.77009C0.888597 8.89809 0.926598 9.01009 1.0146 9.10609L3.6426 12.0461C3.7386 12.1661 3.8586 12.2221 4.0026 12.2141C4.1466 12.2061 4.2586 12.1501 4.3386 12.0461L6.9906 9.10609C7.0706 9.01009 7.1066 8.89609 7.0986 8.76409C7.0906 8.63209 7.0386 8.52209 6.9426 8.43409ZM12.7986 4.00609L10.1946 1.06609C10.0826 0.954094 9.9606 0.896093 9.8286 0.892094C9.6966 0.888094 9.5786 0.946094 9.4746 1.06609L6.8226 4.00609C6.7426 4.10209 6.7066 4.21609 6.7146 4.34809C6.7226 4.48009 6.7746 4.59009 6.8706 4.67809C7.0066 4.78209 7.1466 4.81809 7.2906 4.78609C7.4106 4.76209 7.4946 4.71009 7.5426 4.63009L9.3306 2.61409V10.6181C9.3306 10.7461 9.3786 10.8581 9.4746 10.9541C9.5706 11.0501 9.6846 11.0981 9.8166 11.0981C9.9486 11.0981 10.0606 11.0541 10.1526 10.9661C10.2446 10.8781 10.2906 10.7701 10.2906 10.6421V2.62609L12.0666 4.63009C12.1626 4.72609 12.2746 4.77809 12.4026 4.78609C12.5306 4.79409 12.6446 4.75409 12.7446 4.66609C12.8446 4.57809 12.9006 4.47009 12.9126 4.34209C12.9246 4.21409 12.8866 4.10209 12.7986 4.00609Z" fill="#71778E"/>
</svg>
