<?xml version="1.0" encoding="utf-8"?>
<!-- Generator: Adobe Illustrator 23.0.1, SVG Export Plug-In . SVG Version: 6.00 Build 0)  -->
<svg version="1.1" id="Layer_1" xmlns="http://www.w3.org/2000/svg" xmlns:xlink="http://www.w3.org/1999/xlink" x="0px" y="0px"
	 viewBox="0 0 28.35 18.82" style="enable-background:new 0 0 28.35 18.82;" xml:space="preserve">
<style type="text/css">
	.st0{fill:#3E445A;}
</style>
<g>
	<g>
		<path class="st0" d="M20.16,16.21H9.06c-0.15,0-0.27-0.12-0.27-0.27s0.12-0.27,0.27-0.27h11.1c0.15,0,0.27,0.12,0.27,0.27
			S20.3,16.21,20.16,16.21z"/>
	</g>
	<g>
		<path class="st0" d="M23.77,6.29h-3.52c-0.15,0-0.27-0.12-0.27-0.27s0.12-0.27,0.27-0.27h3.52c0.15,0,0.27,0.12,0.27,0.27
			S23.92,6.29,23.77,6.29z"/>
	</g>
	<g>
		<path class="st0" d="M27.84,16.21c-0.15,0-0.27-0.12-0.27-0.27c0-0.14,0.11-0.26,0.25-0.27v-4.24c0,0,0-0.01-0.01-0.01l-2.04-1.11
			c-0.11-0.04-0.17-0.18-1.12-2.19c-0.53-1.12-1.14-2.44-1.5-3.22c-0.15-0.32-0.47-0.52-0.82-0.52h-4.11
			c-0.15,0-0.27-0.12-0.27-0.27s0.12-0.27,0.27-0.27h4.11c0.56,0,1.07,0.33,1.3,0.83c1.34,2.89,2.26,4.83,2.44,5.19l1.99,1.08
			c0.18,0.1,0.28,0.28,0.28,0.48v4.26C28.35,15.98,28.12,16.21,27.84,16.21z M25.88,9.8c0.04,0,0.09,0.01,0.13,0.03l0.01,0.01
			c-0.07-0.05-0.18-0.06-0.27-0.01C25.8,9.82,25.84,9.8,25.88,9.8z"/>
	</g>
	<g>
		<path class="st0" d="M25.88,10.34h-5.69c-0.15,0-0.27-0.12-0.27-0.26l-0.04-4.05c0-0.15,0.12-0.27,0.26-0.27
			c0.15,0,0.27,0.12,0.27,0.26l0.03,3.78h5.43c0.15,0,0.27,0.12,0.27,0.27C26.15,10.22,26.03,10.34,25.88,10.34z"/>
	</g>
	<g>
		<path class="st0" d="M23.77,18.82c-1.58,0-2.87-1.29-2.87-2.87s1.29-2.87,2.87-2.87s2.87,1.29,2.87,2.87S25.36,18.82,23.77,18.82z
			 M23.77,13.61c-1.29,0-2.34,1.05-2.34,2.34s1.05,2.34,2.34,2.34c1.29,0,2.34-1.05,2.34-2.34S25.06,13.61,23.77,13.61z"/>
	</g>
	<g>
		<path class="st0" d="M4.88,18.82c-1.58,0-2.87-1.29-2.87-2.87s1.29-2.87,2.87-2.87s2.87,1.29,2.87,2.87S6.47,18.82,4.88,18.82z
			 M4.88,13.61c-1.29,0-2.34,1.05-2.34,2.34s1.05,2.34,2.34,2.34s2.34-1.05,2.34-2.34S6.17,13.61,4.88,13.61z"/>
	</g>
	<g>
		<path class="st0" d="M18.22,16.21c-0.15,0-0.27-0.12-0.27-0.27V1.2c0-0.37-0.3-0.67-0.67-0.67H6.01c-0.15,0-0.27-0.12-0.27-0.27
			S5.86,0,6.01,0h11.28c0.66,0,1.2,0.54,1.2,1.2v14.75C18.49,16.09,18.37,16.21,18.22,16.21z"/>
	</g>
	<g>
		<g>
			<path class="st0" d="M4.76,3.66H0.91c-0.15,0-0.27-0.12-0.27-0.27s0.12-0.27,0.27-0.27h3.86c0.15,0,0.27,0.12,0.27,0.27
				S4.91,3.66,4.76,3.66z"/>
		</g>
		<g>
			<path class="st0" d="M4.7,8.8H0.27C0.12,8.8,0,8.68,0,8.53c0-0.15,0.12-0.27,0.27-0.27H4.7c0.15,0,0.27,0.12,0.27,0.27
				C4.96,8.68,4.84,8.8,4.7,8.8z"/>
		</g>
		<g>
			<path class="st0" d="M10.12,11.37H4.24c-0.15,0-0.27-0.12-0.27-0.27s0.12-0.27,0.27-0.27h5.88c0.15,0,0.27,0.12,0.27,0.27
				S10.27,11.37,10.12,11.37z"/>
		</g>
		<g>
			<path class="st0" d="M9.76,6.23H2.27C2.12,6.23,2,6.11,2,5.96c0-0.15,0.12-0.27,0.27-0.27h7.49c0.15,0,0.27,0.12,0.27,0.27
				C10.03,6.11,9.91,6.23,9.76,6.23z"/>
		</g>
	</g>
</g>
</svg>
