<?xml version="1.0" encoding="utf-8"?>
<!-- Generator: Adobe Illustrator 23.0.1, SVG Export Plug-In . SVG Version: 6.00 Build 0)  -->
<svg version="1.1" id="Layer_1" xmlns="http://www.w3.org/2000/svg" xmlns:xlink="http://www.w3.org/1999/xlink" x="0px" y="0px"
	 viewBox="0 0 24 24" style="enable-background:new 0 0 24 24;" xml:space="preserve">
<style type="text/css">
	.st0{fill:#58595B;}
</style>
<g>
	<g>
		<path class="st0" d="M18.8,13.5h-6c-0.4,0-0.7-0.3-0.7-0.7c0-0.4,0.3-0.7,0.7-0.7h6c1.2,0,2.2-1,2.2-2.2s-1-2.2-2.2-2.2h-6.7
			c-0.4,0-0.7-0.3-0.7-0.7s0.3-0.7,0.7-0.7h6.7c1.9,0,3.5,1.6,3.5,3.5S20.8,13.5,18.8,13.5z"/>
	</g>
	<g>
		<g>
			<g>
				<path class="st0" d="M6.9,17.1c-0.2,0-0.3-0.1-0.5-0.2c-0.1-0.1-0.2-0.3-0.2-0.5l0-7.3c0-0.4,0.3-0.7,0.7-0.7
					c3.6,0,6.5,1.9,6.5,4.3C13.4,15.2,10.6,17.1,6.9,17.1z M7.6,9.9l0,5.9c2.5-0.2,4.5-1.5,4.5-3C12.1,11.3,10.1,10.1,7.6,9.9z"/>
			</g>
			<g>
				<path class="st0" d="M2.9,15.5c-0.4,0-0.7-0.3-0.7-0.7c0-0.4,0.3-0.7,0.7-0.7l3.6,0c0.4,0,0.7,0.3,0.7,0.7
					c0,0.4-0.3,0.7-0.7,0.7L2.9,15.5z"/>
			</g>
		</g>
		<g>
			<path class="st0" d="M2.9,12c-0.4,0-0.7-0.3-0.7-0.7c0-0.4,0.3-0.7,0.7-0.7l3.6,0c0.4,0,0.7,0.3,0.7,0.7c0,0.4-0.3,0.7-0.7,0.7
				L2.9,12z"/>
		</g>
	</g>
</g>
</svg>
