<svg width="34" height="35" viewBox="0 0 34 35" fill="none" xmlns="http://www.w3.org/2000/svg">
<rect x="0.5" y="0.800781" width="33" height="33" rx="16.5" fill="white"/>
<rect x="0.5" y="0.800781" width="33" height="33" rx="16.5" stroke="#E4E5EE"/>
<g clip-path="url(#clip0_704_4563)">
<path d="M19.9976 9.15535V11.3604H18.6926C18.2126 11.3604 17.8876 11.4604 17.7176 11.6604C17.5476 11.8604 17.4626 12.1604 17.4626 12.5604V14.1504H19.9226L19.5926 16.6254H17.4626V22.9854H14.8976V16.6254H12.7676V14.1504H14.8976V12.3204C14.8976 11.2804 15.1876 10.4754 15.7676 9.90535C16.3476 9.33535 17.1226 9.05035 18.0926 9.05035C18.9126 9.05035 19.5476 9.08535 19.9976 9.15535Z" fill="#F16521"/>
</g>
<defs>
<clipPath id="clip0_704_4563">
<rect width="15" height="15" fill="white" transform="matrix(1 0 0 -1 9.5 24.0508)"/>
</clipPath>
</defs>
</svg>
