<?xml version="1.0" encoding="utf-8"?>
<!-- Generator: Adobe Illustrator 23.0.1, SVG Export Plug-In . SVG Version: 6.00 Build 0)  -->
<svg version="1.1" id="Layer_1" xmlns="http://www.w3.org/2000/svg" xmlns:xlink="http://www.w3.org/1999/xlink" x="0px" y="0px"
	 viewBox="0 0 24 24" style="enable-background:new 0 0 24 24;" xml:space="preserve">
<style type="text/css">
	.st0{fill:#58595B;}
</style>
<g>
	<g>
		<g>
			<path class="st0" d="M12.1,16.3c-4,0-7.2-3.2-7.2-7.2c0-4,3.2-7.2,7.2-7.2c4,0,7.2,3.2,7.2,7.2C19.3,13.1,16.1,16.3,12.1,16.3z
				 M12.1,2.6c-3.6,0-6.6,3-6.6,6.6c0,3.6,3,6.6,6.6,6.6c3.6,0,6.6-3,6.6-6.6C18.7,5.5,15.8,2.6,12.1,2.6z"/>
		</g>
		<g>
			<g>
				<path class="st0" d="M12.1,6.8c-0.2,0-0.3-0.1-0.3-0.3V4c0-0.2,0.1-0.3,0.3-0.3c0.2,0,0.3,0.1,0.3,0.3v2.6
					C12.4,6.7,12.3,6.8,12.1,6.8z"/>
			</g>
			<g>
				<path class="st0" d="M13.8,9.4c-0.1,0-0.1,0-0.2-0.1c-0.1-0.1-0.1-0.3,0-0.4c0.5-0.5,0.8-1.2,0.8-1.9c0-1.3-1-2.5-2.3-2.7
					c-0.2,0-0.3-0.2-0.2-0.3c0-0.2,0.2-0.3,0.3-0.2C13.8,4,14.9,5.4,14.9,7c0,0.9-0.3,1.7-0.9,2.3C13.9,9.3,13.9,9.4,13.8,9.4z"/>
			</g>
			<g>
				<path class="st0" d="M17.6,9.7h-3.8c-0.2,0-0.3-0.1-0.3-0.3c0-0.2,0.1-0.3,0.3-0.3h3.8c0.2,0,0.3,0.1,0.3,0.3
					C17.9,9.6,17.7,9.7,17.6,9.7z"/>
			</g>
			<g>
				<path class="st0" d="M14.6,12.2c-0.8,0-1.6-0.3-2.3-0.9c-0.1-0.1-0.1-0.3,0-0.4c0.1-0.1,0.3-0.1,0.4,0c0.5,0.5,1.2,0.7,1.9,0.7
					c1.3,0,2.5-1,2.7-2.3c0-0.2,0.2-0.3,0.3-0.2c0.2,0,0.3,0.2,0.2,0.3C17.6,11.1,16.2,12.2,14.6,12.2z"/>
			</g>
			<g>
				<path class="st0" d="M12.1,15.2c-0.2,0-0.3-0.1-0.3-0.3v-3.7c0-0.2,0.1-0.3,0.3-0.3c0.2,0,0.3,0.1,0.3,0.3v3.7
					C12.4,15.1,12.3,15.2,12.1,15.2z"/>
			</g>
			<g>
				<path class="st0" d="M12.1,15.2C12.1,15.2,12.1,15.2,12.1,15.2c-1.6-0.3-2.8-1.7-2.8-3.3c0-0.4,0.1-0.7,0.2-1
					c0-0.1,0.2-0.2,0.4-0.2c0.1,0,0.2,0.2,0.2,0.4c-0.1,0.3-0.1,0.6-0.1,0.9c0,1.3,1,2.5,2.3,2.7c0.2,0,0.3,0.2,0.2,0.3
					C12.4,15.1,12.2,15.2,12.1,15.2z"/>
			</g>
			<g>
				<path class="st0" d="M10.4,9.7H6.6c-0.2,0-0.3-0.1-0.3-0.3c0-0.2,0.1-0.3,0.3-0.3h3.8c0.2,0,0.3,0.1,0.3,0.3
					C10.7,9.6,10.6,9.7,10.4,9.7z"/>
			</g>
			<g>
				<path class="st0" d="M6.6,9.7C6.6,9.7,6.6,9.7,6.6,9.7c-0.2,0-0.3-0.2-0.3-0.3C6.7,7.8,8,6.7,9.6,6.7c0.9,0,1.7,0.3,2.3,0.9
					c0.1,0.1,0.1,0.3,0,0.4c-0.1,0.1-0.3,0.1-0.4,0c-0.5-0.5-1.2-0.8-1.9-0.8c-1.3,0-2.5,1-2.7,2.3C6.9,9.6,6.8,9.7,6.6,9.7z"/>
			</g>
			<g>
				<path class="st0" d="M12.1,11.5c-1.1,0-2-0.9-2-2c0-1.1,0.9-2,2-2c1.1,0,2,0.9,2,2C14.1,10.6,13.2,11.5,12.1,11.5z M12.1,8
					c-0.8,0-1.4,0.6-1.4,1.4c0,0.8,0.6,1.4,1.4,1.4c0.8,0,1.4-0.6,1.4-1.4C13.6,8.7,12.9,8,12.1,8z"/>
			</g>
		</g>
		<g>
			<g>
				<path class="st0" d="M13.3,18.2c-0.2,0-0.3-0.1-0.3-0.3v-1.8c0-0.2,0.1-0.3,0.3-0.3s0.3,0.1,0.3,0.3v1.8
					C13.6,18.1,13.4,18.2,13.3,18.2z"/>
			</g>
			<g>
				<path class="st0" d="M11,19c-0.2,0-0.3-0.1-0.3-0.3V17c0-0.2,0.1-0.3,0.3-0.3c0.2,0,0.3,0.1,0.3,0.3v1.7
					C11.2,18.9,11.1,19,11,19z"/>
			</g>
			<g>
				<path class="st0" d="M16.7,22H7.5c-0.2,0-0.3-0.1-0.3-0.3v-0.9c0-1.3,1.1-2.4,2.4-2.4h5c1.3,0,2.4,1.1,2.4,2.4v0.9
					C17,21.9,16.9,22,16.7,22z M7.8,21.4h8.7v-0.6c0-1-0.8-1.8-1.8-1.8h-5c-1,0-1.8,0.8-1.8,1.8V21.4z"/>
			</g>
		</g>
	</g>
	<g>
		<path class="st0" d="M13.8,20.6h-3.5c-0.2,0-0.3-0.1-0.3-0.3s0.1-0.3,0.3-0.3h3.5c0.2,0,0.3,0.1,0.3,0.3S14,20.6,13.8,20.6z"/>
	</g>
</g>
</svg>
