<?xml version="1.0" encoding="utf-8"?>
<!-- Generator: Adobe Illustrator 23.0.1, SVG Export Plug-In . SVG Version: 6.00 Build 0)  -->
<svg version="1.1" id="Layer_1" xmlns="http://www.w3.org/2000/svg" xmlns:xlink="http://www.w3.org/1999/xlink" x="0px" y="0px"
	 viewBox="0 0 24 24" style="enable-background:new 0 0 24 24;" xml:space="preserve">
<style type="text/css">
	.st0{fill:#58595B;}
</style>
<g>
	<g>
		<g>
			<g>
				<path class="st0" d="M10.7,21.8H2.3c-0.4,0-0.8-0.3-0.8-0.8V2.7c0-0.4,0.3-0.8,0.8-0.8h8.3c0.4,0,0.8,0.3,0.8,0.8V21
					C11.4,21.4,11.1,21.8,10.7,21.8z M2.3,2.3C2.1,2.3,2,2.5,2,2.7V21c0,0.2,0.1,0.3,0.3,0.3h8.3c0.2,0,0.3-0.1,0.3-0.3V2.7
					c0-0.2-0.1-0.3-0.3-0.3H2.3z"/>
			</g>
			<g>
				<path class="st0" d="M8.2,6.3H4.8c-0.1,0-0.2-0.1-0.2-0.2V4.2C4.6,4.1,4.7,4,4.8,4h3.4c0.1,0,0.2,0.1,0.2,0.2v1.9
					C8.4,6.2,8.3,6.3,8.2,6.3z M5,5.9h2.9V4.4H5V5.9z"/>
			</g>
			<g>
				<path class="st0" d="M3.2,16.2H1.8c-0.1,0-0.2-0.1-0.2-0.2s0.1-0.2,0.2-0.2h1.4c0.1,0,0.2-0.1,0.2-0.2v-4.2
					c0-0.1-0.1-0.2-0.2-0.2H2.6c-0.1,0-0.2-0.1-0.2-0.2c0-0.1,0.1-0.2,0.2-0.2h0.6c0.4,0,0.6,0.3,0.6,0.6v4.2
					C3.8,15.9,3.6,16.2,3.2,16.2z"/>
			</g>
		</g>
		<g>
			<path class="st0" d="M11.2,19.3H1.8c-0.1,0-0.2-0.1-0.2-0.2c0-0.1,0.1-0.2,0.2-0.2h9.4c0.1,0,0.2,0.1,0.2,0.2
				C11.4,19.2,11.3,19.3,11.2,19.3z"/>
		</g>
	</g>
	<g>
		<g>
			<path class="st0" d="M21.7,21.8H11.7c-0.4,0-0.7-0.3-0.7-0.7V7.6c0-0.4,0.3-0.7,0.7-0.7h10.1c0.4,0,0.7,0.3,0.7,0.7V21
				C22.5,21.4,22.1,21.8,21.7,21.8z M11.7,7.3c-0.2,0-0.3,0.1-0.3,0.3V21c0,0.2,0.1,0.3,0.3,0.3h10.1c0.2,0,0.3-0.1,0.3-0.3V7.6
				c0-0.2-0.1-0.3-0.3-0.3H11.7z"/>
		</g>
		<g>
			<path class="st0" d="M16.7,20.5c-2.5,0-4.5-2-4.5-4.5s2-4.5,4.5-4.5s4.5,2,4.5,4.5S19.1,20.5,16.7,20.5z M16.7,11.9
				c-2.2,0-4.1,1.8-4.1,4.1s1.8,4.1,4.1,4.1s4.1-1.8,4.1-4.1S18.9,11.9,16.7,11.9z"/>
		</g>
		<g>
			<path class="st0" d="M16.7,19.3c-1.8,0-3.3-1.5-3.3-3.3c0-1.8,1.5-3.3,3.3-3.3c1.2,0,2.3,0.6,2.8,1.6c0.1,0.1,0,0.2-0.1,0.3
				c-0.1,0.1-0.2,0-0.3-0.1c-0.5-0.9-1.5-1.4-2.5-1.4c-1.6,0-2.9,1.3-2.9,2.9c0,1.6,1.3,2.9,2.9,2.9c1,0,2-0.5,2.5-1.4
				c0.1-0.1,0.2-0.1,0.3-0.1c0.1,0.1,0.1,0.2,0.1,0.3C18.9,18.6,17.8,19.3,16.7,19.3z"/>
		</g>
		<g>
			<path class="st0" d="M22.2,10.9H11.2c-0.1,0-0.2-0.1-0.2-0.2c0-0.1,0.1-0.2,0.2-0.2h10.9c0.1,0,0.2,0.1,0.2,0.2
				C22.4,10.8,22.3,10.9,22.2,10.9z"/>
		</g>
		<g>
			<g>
				<path class="st0" d="M15.6,9.7h-3.5c-0.1,0-0.2-0.1-0.2-0.2V8.1c0-0.1,0.1-0.2,0.2-0.2h3.5c0.1,0,0.2,0.1,0.2,0.2v1.4
					C15.9,9.6,15.8,9.7,15.6,9.7z M12.4,9.3h3.1v-1h-3.1V9.3z"/>
			</g>
			<g>
				<g>
					<path class="st0" d="M18.2,9.7c-0.1,0-0.2,0-0.2,0c-0.1,0-0.2-0.1-0.2-0.3c0-0.1,0.1-0.2,0.3-0.2c0,0,0.1,0,0.1,0
						c0.3,0,0.5-0.2,0.5-0.5s-0.2-0.5-0.5-0.5c-0.2,0-0.4,0.1-0.5,0.3c0,0.1-0.2,0.2-0.3,0.1c-0.1,0-0.2-0.2-0.1-0.3
						c0.1-0.4,0.5-0.6,0.9-0.6c0.5,0,0.9,0.4,0.9,0.9C19.1,9.3,18.7,9.7,18.2,9.7z"/>
				</g>
				<g>
					<path class="st0" d="M20.5,9.7c-0.5,0-0.9-0.4-0.9-0.9c0-0.5,0.3-0.8,0.8-0.9c0.1,0,0.2,0.1,0.2,0.2c0,0.1-0.1,0.2-0.2,0.2
						c-0.2,0-0.4,0.2-0.4,0.5c0,0.3,0.2,0.5,0.5,0.5c0.2,0,0.4-0.2,0.5-0.4c0-0.1,0.1-0.2,0.2-0.2c0.1,0,0.2,0.1,0.2,0.2
						C21.4,9.4,21,9.7,20.5,9.7z"/>
				</g>
			</g>
		</g>
		<g>
			<path class="st0" d="M19.3,17.7C19.3,17.7,19.3,17.7,19.3,17.7c-0.8-0.2-1.4-0.9-1.4-1.7c0-0.8,0.5-1.5,1.3-1.7
				c0.1,0,0.2,0,0.3,0.2c0,0.1,0,0.2-0.2,0.3c-0.6,0.2-1,0.7-1,1.3c0,0.6,0.4,1.2,1,1.3c0.1,0,0.2,0.1,0.2,0.3
				C19.5,17.6,19.4,17.7,19.3,17.7z"/>
		</g>
	</g>
</g>
</svg>
