<svg width="34" height="35" viewBox="0 0 34 35" fill="none" xmlns="http://www.w3.org/2000/svg">
<rect x="0.5" y="0.800781" width="33" height="33" rx="16.5" fill="white"/>
<rect x="0.5" y="0.800781" width="33" height="33" rx="16.5" stroke="#E4E5EE"/>
<path d="M19.188 16.5513C19.188 15.9613 18.983 15.4563 18.573 15.0363C18.163 14.6163 17.658 14.4063 17.058 14.4063C16.458 14.4063 15.953 14.6163 15.543 15.0363C15.133 15.4563 14.923 15.9613 14.913 16.5513C14.903 17.1413 15.113 17.6463 15.543 18.0663C15.973 18.4863 16.478 18.6963 17.058 18.6963C17.638 18.6963 18.143 18.4863 18.573 18.0663C19.003 17.6463 19.208 17.1413 19.188 16.5513ZM20.343 16.5513C20.343 17.4613 20.023 18.2413 19.383 18.8913C18.743 19.5413 17.968 19.8613 17.058 19.8513C16.148 19.8413 15.368 19.5213 14.718 18.8913C14.068 18.2613 13.748 17.4813 13.758 16.5513C13.768 15.6213 14.088 14.8413 14.718 14.2113C15.348 13.5813 16.128 13.2613 17.058 13.2513C17.988 13.2413 18.763 13.5613 19.383 14.2113C20.003 14.8613 20.323 15.6413 20.343 16.5513ZM21.258 13.1163C21.258 13.3263 21.183 13.5063 21.033 13.6563C20.883 13.8063 20.698 13.8813 20.478 13.8813C20.258 13.8813 20.078 13.8063 19.938 13.6563C19.798 13.5063 19.723 13.3263 19.713 13.1163C19.703 12.9063 19.778 12.7263 19.938 12.5763C20.098 12.4263 20.278 12.3513 20.478 12.3513C20.678 12.3513 20.863 12.4263 21.033 12.5763C21.203 12.7263 21.278 12.9063 21.258 13.1163ZM17.058 11.2713C17.018 11.2713 16.803 11.2713 16.413 11.2713H15.528C15.328 11.2713 15.058 11.2813 14.718 11.3013C14.378 11.3213 14.093 11.3463 13.863 11.3763C13.633 11.4063 13.433 11.4613 13.263 11.5413C12.983 11.6513 12.738 11.8113 12.528 12.0213C12.318 12.2313 12.153 12.4763 12.033 12.7563C11.973 12.9163 11.923 13.1163 11.883 13.3563C11.843 13.5963 11.813 13.8863 11.793 14.2263C11.773 14.5663 11.768 14.8313 11.778 15.0213C11.788 15.2113 11.788 15.5063 11.778 15.9063C11.768 16.3063 11.768 16.5213 11.778 16.5513C11.788 16.5813 11.788 16.7963 11.778 17.1963C11.768 17.5963 11.768 17.8913 11.778 18.0813C11.788 18.2713 11.793 18.5363 11.793 18.8763C11.793 19.2163 11.823 19.5063 11.883 19.7463L12.033 20.3463C12.153 20.6263 12.318 20.8713 12.528 21.0813C12.738 21.2913 12.983 21.4513 13.263 21.5613C13.423 21.6213 13.623 21.6763 13.863 21.7263C14.103 21.7763 14.388 21.8013 14.718 21.8013C15.048 21.8013 15.318 21.8113 15.528 21.8313C15.738 21.8513 16.033 21.8513 16.413 21.8313C16.793 21.8113 17.008 21.8113 17.058 21.8313C17.108 21.8513 17.318 21.8513 17.688 21.8313C18.058 21.8113 18.353 21.8113 18.573 21.8313C18.793 21.8513 19.063 21.8413 19.383 21.8013C19.703 21.7613 19.993 21.7363 20.253 21.7263C20.513 21.7163 20.708 21.6613 20.838 21.5613C21.118 21.4513 21.368 21.2913 21.588 21.0813C21.808 20.8713 21.968 20.6263 22.068 20.3463C22.128 20.1863 22.178 19.9863 22.218 19.7463C22.258 19.5063 22.288 19.2163 22.308 18.8763C22.328 18.5363 22.333 18.2713 22.323 18.0813C22.313 17.8913 22.313 17.5963 22.323 17.1963C22.333 16.7963 22.333 16.5813 22.323 16.5513C22.313 16.5213 22.313 16.3063 22.323 15.9063C22.333 15.5063 22.333 15.2113 22.323 15.0213C22.313 14.8313 22.308 14.5663 22.308 14.2263C22.308 13.8863 22.278 13.5963 22.218 13.3563L22.068 12.7563C21.958 12.4763 21.798 12.2313 21.588 12.0213C21.378 11.8113 21.128 11.6513 20.838 11.5413C20.678 11.4813 20.483 11.4263 20.253 11.3763C20.023 11.3263 19.733 11.3013 19.383 11.3013C19.033 11.3013 18.763 11.2913 18.573 11.2713C18.383 11.2513 18.088 11.2513 17.688 11.2713C17.288 11.2913 17.078 11.2913 17.058 11.2713ZM23.478 16.5513C23.478 17.8313 23.463 18.7163 23.433 19.2063C23.383 20.3663 23.038 21.2663 22.398 21.9063C21.758 22.5463 20.863 22.8913 19.713 22.9413C19.213 22.9713 18.328 22.9863 17.058 22.9863C15.788 22.9863 14.903 22.9713 14.403 22.9413C13.243 22.8813 12.343 22.5363 11.703 21.9063C11.063 21.2763 10.718 20.3763 10.668 19.2063C10.638 18.7163 10.623 17.8313 10.623 16.5513C10.623 15.2713 10.638 14.3863 10.668 13.8963C10.718 12.7363 11.063 11.8363 11.703 11.1963C12.343 10.5563 13.243 10.2113 14.403 10.1613C14.893 10.1313 15.778 10.1163 17.058 10.1163C18.338 10.1163 19.223 10.1313 19.713 10.1613C20.873 10.2213 21.768 10.5663 22.398 11.1963C23.028 11.8263 23.373 12.7263 23.433 13.8963C23.463 14.3863 23.478 15.2713 23.478 16.5513Z" fill="#F16521"/>
</svg>
