<?xml version="1.0" encoding="utf-8"?>
<!-- Generator: Adobe Illustrator 23.0.1, SVG Export Plug-In . SVG Version: 6.00 Build 0)  -->
<svg version="1.1" id="Layer_1" xmlns="http://www.w3.org/2000/svg" xmlns:xlink="http://www.w3.org/1999/xlink" x="0px" y="0px"
	 viewBox="0 0 24 24" style="enable-background:new 0 0 24 24;" xml:space="preserve">
<style type="text/css">
	.st0{fill:#58595B;}
</style>
<g>
	<g>
		<g>
			<path class="st0" d="M20.5,20.6H3.3c-0.1,0-0.3-0.1-0.3-0.3V3.4c0-0.1,0.1-0.3,0.3-0.3h17.3c0.1,0,0.3,0.1,0.3,0.3v16.9
				C20.8,20.5,20.7,20.6,20.5,20.6z M3.5,20h16.7V3.7H3.5V20z"/>
		</g>
		<g>
			<path class="st0" d="M19.5,7.8H4.3c-0.1,0-0.3-0.1-0.3-0.3s0.1-0.3,0.3-0.3h15.2c0.1,0,0.3,0.1,0.3,0.3S19.6,7.8,19.5,7.8z"/>
		</g>
		<g>
			<path class="st0" d="M12.8,6.4H9.1c-0.1,0-0.3-0.1-0.3-0.3V4.5c0-0.1,0.1-0.3,0.3-0.3h5.7c0.1,0,0.3,0.1,0.3,0.3v1
				c0,0.1-0.1,0.3-0.3,0.3c-0.1,0-0.3-0.1-0.3-0.3V4.8H9.3v1.1h3.5c0.1,0,0.3,0.1,0.3,0.3C13.1,6.3,13,6.4,12.8,6.4z"/>
		</g>
		<g>
			<g>
				<path class="st0" d="M6.2,6.4c-0.1,0-0.3-0.1-0.3-0.3c0-0.1,0.1-0.3,0.3-0.3c0.3,0,0.5-0.2,0.5-0.5c0-0.3-0.2-0.5-0.5-0.5
					C5.9,4.8,5.7,5,5.7,5.3c0,0.1-0.1,0.3-0.3,0.3c-0.1,0-0.3-0.1-0.3-0.3c0-0.6,0.5-1.1,1.1-1.1c0.6,0,1.1,0.5,1.1,1.1
					C7.3,5.9,6.8,6.4,6.2,6.4z"/>
			</g>
			<g>
				<path class="st0" d="M17.6,6.4c-0.6,0-1.1-0.5-1.1-1.1c0-0.6,0.5-1.1,1.1-1.1c0.1,0,0.3,0.1,0.3,0.3c0,0.1-0.1,0.3-0.3,0.3
					c-0.3,0-0.5,0.2-0.5,0.5c0,0.3,0.2,0.5,0.5,0.5c0.3,0,0.5-0.2,0.5-0.5c0-0.1,0.1-0.3,0.3-0.3c0.1,0,0.3,0.1,0.3,0.3
					C18.7,5.9,18.2,6.4,17.6,6.4z"/>
			</g>
		</g>
		<g>
			<path class="st0" d="M18.4,19h-13c-0.1,0-0.3-0.1-0.3-0.3v-7.1c0-0.1,0.1-0.3,0.3-0.3c0.1,0,0.3,0.1,0.3,0.3v6.8h12.5v-6.8
				c0-0.1,0.1-0.3,0.3-0.3c0.1,0,0.3,0.1,0.3,0.3v7.1C18.7,18.9,18.5,19,18.4,19z"/>
		</g>
		<g>
			<path class="st0" d="M16.6,17.8H7.2c-0.1,0-0.3-0.1-0.3-0.3c0-0.1,0.1-0.3,0.3-0.3h9.4c0.1,0,0.3,0.1,0.3,0.3
				C16.9,17.6,16.8,17.8,16.6,17.8z"/>
		</g>
		<g>
			<path class="st0" d="M18.6,11.1H5.2c-0.5,0-0.9-0.4-0.9-0.9V9.8c0-0.5,0.4-0.9,0.9-0.9h13.3c0.5,0,0.9,0.4,0.9,0.9v0.4
				C19.5,10.7,19.1,11.1,18.6,11.1z M5.2,9.4C5,9.4,4.9,9.6,4.9,9.8v0.4c0,0.2,0.2,0.4,0.4,0.4h13.3c0.2,0,0.4-0.2,0.4-0.4V9.8
				c0-0.2-0.2-0.4-0.4-0.4H5.2z"/>
		</g>
	</g>
</g>
</svg>
