<svg width="34" height="35" viewBox="0 0 34 35" fill="none" xmlns="http://www.w3.org/2000/svg">
<rect x="0.5" y="0.800781" width="33" height="33" rx="16.5" fill="white"/>
<rect x="0.5" y="0.800781" width="33" height="33" rx="16.5" stroke="#E4E5EE"/>
<path d="M13.548 14.2851V22.5801H10.788V14.2851H13.548ZM13.728 11.7201C13.728 12.1301 13.583 12.4701 13.293 12.7401C13.003 13.0101 12.628 13.1451 12.168 13.1451H12.153C11.693 13.1451 11.323 13.0101 11.043 12.7401C10.763 12.4701 10.623 12.1301 10.623 11.7201C10.623 11.3101 10.768 10.9701 11.058 10.7001C11.348 10.4301 11.723 10.2951 12.183 10.2951C12.643 10.2951 13.013 10.4301 13.293 10.7001C13.573 10.9701 13.718 11.3101 13.728 11.7201ZM23.478 17.8251V22.5801H20.733V18.1401C20.733 17.5501 20.618 17.0901 20.388 16.7601C20.158 16.4301 19.803 16.2651 19.323 16.2651C18.973 16.2651 18.683 16.3601 18.453 16.5501C18.223 16.7401 18.043 16.9801 17.913 17.2701C17.853 17.4401 17.823 17.6651 17.823 17.9451V22.5801H15.063C15.073 20.3501 15.078 18.5451 15.078 17.1651V14.6901L15.063 14.2851H17.823V15.4851H17.808C17.918 15.3051 18.033 15.1501 18.153 15.0201C18.273 14.8901 18.428 14.7451 18.618 14.5851C18.808 14.4251 19.053 14.3051 19.353 14.2251C19.653 14.1451 19.973 14.1001 20.313 14.0901C21.263 14.0901 22.028 14.4051 22.608 15.0351C23.188 15.6651 23.478 16.5951 23.478 17.8251Z" fill="#F16521"/>
</svg>
