<svg width="20" height="21" viewBox="0 0 20 21" fill="none" xmlns="http://www.w3.org/2000/svg">
<g clipPath="url(#clip0_704_4624)">
<path d="M2.50977 8.04C2.50977 5.96 3.2431 4.18 4.70977 2.7C6.17643 1.22 7.95643 0.486668 10.0498 0.5C12.1431 0.513334 13.9231 1.24667 15.3898 2.7C16.8564 4.15333 17.5898 5.93333 17.5898 8.04C17.5898 9.68 17.2364 10.9667 16.5298 11.9L10.0498 20.5L3.56977 11.9C2.8631 10.9667 2.50977 9.68 2.50977 8.04ZM6.88977 8.04C6.88977 8.92 7.19643 9.66667 7.80977 10.28C8.4231 10.8933 9.16977 11.2 10.0498 11.2C10.9298 11.2 11.6764 10.8933 12.2898 10.28C12.9031 9.66667 13.2098 8.92 13.2098 8.04C13.2098 7.16 12.9031 6.41333 12.2898 5.8C11.6764 5.18667 10.9298 4.88 10.0498 4.88C9.16977 4.88 8.4231 5.18667 7.80977 5.8C7.19643 6.41333 6.88977 7.16 6.88977 8.04Z" fill="#3E445A"/>
</g>
<defs>
<clipPath id="clip0_704_4624">
<rect width="20" height="20" fill="white" transform="matrix(1 0 0 -1 0 20.5)"/>
</clipPath>
</defs>
</svg>
