<?xml version="1.0" encoding="utf-8"?>
<!-- Generator: Adobe Illustrator 23.0.1, SVG Export Plug-In . SVG Version: 6.00 Build 0)  -->
<svg version="1.1" id="Layer_1" xmlns="http://www.w3.org/2000/svg" xmlns:xlink="http://www.w3.org/1999/xlink" x="0px" y="0px"
	 viewBox="0 0 21.33 18.84" style="enable-background:new 0 0 21.33 18.84;" xml:space="preserve">
<style type="text/css">
	.st0{fill:#3E445A;}
</style>
<g>
	<path class="st0" d="M21.29,6.22L18.8,2.61V0.66C18.8,0.3,18.5,0,18.13,0H3.19C2.83,0,2.53,0.3,2.53,0.66v1.95l-2.5,3.61l0,0
		C0.02,6.24,0.01,6.27,0.01,6.29l0,0V6.3c0,0.01,0,0.02,0,0.03l0,0v1.52C0,8,0.03,8.15,0.08,8.28C0.32,8.9,0.97,9.32,1.69,9.32
		c0.08,0,0.16-0.01,0.23-0.02v9.1H1.18c-0.12,0-0.21,0.09-0.21,0.21c0,0.12,0.09,0.21,0.21,0.21h19.05c0.12,0,0.21-0.09,0.21-0.21
		c0-0.12-0.09-0.21-0.21-0.21h-0.74V9.33c0.05,0,0.11,0.01,0.16,0.01c0.72,0,1.37-0.42,1.61-1.04c0.05-0.14,0.08-0.28,0.07-0.43
		V6.35C21.33,6.31,21.32,6.26,21.29,6.22z M2.86,2.88h15.62l2.24,3.25H0.61L2.86,2.88z M3.19,0.42h14.94c0.13,0,0.24,0.11,0.24,0.24
		v1.8H2.96v-1.8C2.96,0.53,3.06,0.42,3.19,0.42z M8.33,18.42h-4.3v-7.29h4.3V18.42z M19.06,18.42H8.75v-7.5
		c0-0.12-0.09-0.21-0.21-0.21H3.82c-0.12,0-0.21,0.09-0.21,0.21v7.5H2.33v-9.2c0.36-0.14,0.66-0.38,0.84-0.69
		c0.29,0.48,0.85,0.81,1.5,0.81s1.21-0.33,1.5-0.81c0.29,0.48,0.85,0.81,1.5,0.81s1.21-0.33,1.5-0.81c0.29,0.48,0.85,0.81,1.5,0.81
		s1.21-0.33,1.5-0.81c0.29,0.48,0.85,0.81,1.5,0.81s1.21-0.33,1.5-0.81c0.29,0.48,0.85,0.81,1.5,0.81s1.21-0.33,1.5-0.81
		c0.2,0.33,0.52,0.59,0.91,0.72v9.17H19.06z M20.86,8.14c-0.18,0.46-0.67,0.77-1.22,0.77c-0.71,0-1.29-0.51-1.29-1.15
		c0-0.12-0.09-0.21-0.21-0.21c-0.12,0-0.21,0.09-0.21,0.21c0,0.63-0.58,1.15-1.29,1.15s-1.29-0.51-1.29-1.15
		c0-0.12-0.09-0.21-0.21-0.21s-0.21,0.09-0.21,0.21c0,0.63-0.58,1.15-1.29,1.15s-1.29-0.51-1.29-1.15c0-0.12-0.09-0.21-0.21-0.21
		s-0.21,0.09-0.21,0.21c0,0.63-0.58,1.15-1.29,1.15S9.38,8.4,9.38,7.77c0-0.12-0.09-0.21-0.21-0.21S8.96,7.65,8.96,7.77
		c0,0.63-0.58,1.15-1.29,1.15S6.38,8.4,6.38,7.77c0-0.12-0.09-0.21-0.21-0.21S5.96,7.65,5.96,7.77c0,0.63-0.58,1.15-1.29,1.15
		S3.39,8.4,3.39,7.77c0-0.12-0.09-0.21-0.21-0.21S2.97,7.65,2.97,7.77c0,0.63-0.58,1.15-1.29,1.15c-0.55,0-1.04-0.31-1.22-0.77
		C0.43,8.06,0.42,7.97,0.42,7.88V7.87V6.55H20.9v1.32v0.01C20.91,7.97,20.89,8.06,20.86,8.14z"/>
	<path class="st0" d="M17.58,10.71h-7.4c-0.12,0-0.21,0.09-0.21,0.21v4.16c0,0.12,0.09,0.21,0.21,0.21h7.4
		c0.12,0,0.21-0.09,0.21-0.21v-4.16C17.79,10.81,17.69,10.71,17.58,10.71z M17.37,14.87H10.4v-3.74h6.97V14.87z"/>
</g>
</svg>
