<?xml version="1.0" encoding="utf-8"?>
<!-- Generator: Adobe Illustrator 23.0.1, SVG Export Plug-In . SVG Version: 6.00 Build 0)  -->
<svg version="1.1" id="Layer_1" xmlns="http://www.w3.org/2000/svg" xmlns:xlink="http://www.w3.org/1999/xlink" x="0px" y="0px"
	 viewBox="0 0 24 24" style="enable-background:new 0 0 24 24;" xml:space="preserve">
<style type="text/css">
	.st0{fill:#58595B;}
</style>
<g>
	<g>
		<path class="st0" d="M10.4,8.2c-0.1,0-0.1-0.1-0.1-0.1c0-0.7,0.5-1.2,1.2-1.2h0.1l0-0.1c-0.1-0.9-0.3-1.8-0.7-2.6c0,0,0,0,0,0
			l-0.9,0C7.4,4.3,5.2,5.7,4,7.8c0,0.1-0.1,0.1-0.2,0c-0.1,0-0.1-0.1,0-0.2c0.6-1.1,1.5-2,2.5-2.6c1-0.6,2.2-1,3.4-1.1l0.9,0
			c0,0,0,0,0,0c0.1,0,0.2,0.1,0.2,0.1c0.4,0.8,0.7,1.7,0.8,2.7l0,0.3c0,0,0,0.1,0,0.1c0,0-0.1,0-0.1,0h-0.2c-0.5,0-0.9,0.4-0.9,0.9
			C10.5,8.1,10.4,8.2,10.4,8.2z"/>
	</g>
	<g>
		<path class="st0" d="M10.4,9.3H3.1c0,0-0.1,0-0.1-0.1c0,0,0-0.1,0-0.1l0.2-0.4c0.2-0.4,0.6-0.7,1.1-0.7h6.1c0.1,0,0.1,0.1,0.1,0.1
			v1.1C10.5,9.2,10.4,9.3,10.4,9.3z M3.3,9h6.9V8.2h-6c-0.4,0-0.7,0.2-0.8,0.6L3.3,9z"/>
	</g>
	<g>
		<path class="st0" d="M4.7,6.7C4.6,6.7,4.6,6.7,4.7,6.7L4.3,6.4C4.2,6.3,4.2,6,4.3,5.9l0.5-0.5c0.1-0.1,0.2-0.1,0.3-0.1
			c0,0,0,0,0,0c0.1,0,0.2,0,0.3,0.1c0,0,0,0.1,0,0.2c0,0-0.1,0-0.2,0c0,0-0.1,0-0.1,0c0,0,0,0,0,0c0,0-0.1,0-0.1,0L4.5,6
			c-0.1,0.1-0.1,0.2,0,0.2l0.2,0.2C4.8,6.6,4.8,6.6,4.7,6.7C4.7,6.7,4.7,6.7,4.7,6.7z"/>
	</g>
	<g>
		<path class="st0" d="M9.4,6.8h-3c-0.1,0-0.3-0.1-0.3-0.2c0-0.1,0-0.3,0.1-0.4c0.7-0.7,1.7-1.1,2.6-1.3l0.3-0.1
			C9.5,4.8,9.8,5,10,5.3l0.1,0.1c0.2,0.4,0.2,0.9-0.2,1.1C9.8,6.7,9.6,6.8,9.4,6.8z M9.3,5.1c0,0-0.1,0-0.1,0L8.9,5.2
			C7.9,5.4,7.1,5.8,6.3,6.4c0,0,0,0.1,0,0.1c0,0,0,0,0.1,0h3c0.2,0,0.3-0.1,0.4-0.2c0.2-0.2,0.3-0.6,0.1-0.8L9.8,5.4
			C9.7,5.2,9.5,5.1,9.3,5.1z"/>
	</g>
	<g>
		<path class="st0" d="M11.3,5.2c0,0-0.1,0-0.1-0.1c0-0.1,0-0.1,0.1-0.2l0.5-0.2l-0.2-0.6l-0.2,0.1c-0.1,0-0.1,0-0.2-0.1
			c0-0.1,0-0.1,0.1-0.2l0.3-0.1c0.1,0,0.1,0,0.2,0.1L12,4.7c0,0,0,0.1,0,0.1c0,0,0,0.1-0.1,0.1L11.3,5.2C11.3,5.2,11.3,5.2,11.3,5.2
			z"/>
	</g>
	<g>
		<path class="st0" d="M11.7,4.5C11.7,4.5,11.7,4.5,11.7,4.5c-0.1,0-0.1-0.1-0.1-0.2L11.7,4c0.1-0.2,0.1-0.5,0-0.7
			c-0.1-0.2-0.4-0.4-0.6-0.4l-0.4,0C10.2,2.8,9.8,2.4,9.7,2c-0.1-0.5,0.1-0.9,0.5-1.2c0.1,0,0.1,0,0.2,0s0,0.1,0,0.2
			C10,1.3,9.9,1.6,10,1.9c0.1,0.3,0.3,0.6,0.7,0.7l0.4,0c0.3,0,0.6,0.2,0.8,0.5c0.2,0.3,0.2,0.7,0,1l-0.1,0.3
			C11.8,4.5,11.8,4.5,11.7,4.5z"/>
	</g>
</g>
<g>
	<g>
		<path class="st0" d="M20.2,20.6c-0.1,0-0.1-0.1-0.1-0.1l0-1c0-1.8-0.1-3.6-0.3-5.4l0-0.3c0-0.3-0.2-0.5-0.5-0.5h-3.5
			c-0.3,0-0.5,0.2-0.5,0.5l0,0.4c-0.2,1.8-0.3,3.6-0.3,5.4v0.9c0,0.1-0.1,0.1-0.1,0.1c-0.1,0-0.1-0.1-0.1-0.1v-0.9
			c0-1.8,0.1-3.7,0.3-5.5l0-0.4c0-0.4,0.4-0.7,0.8-0.7h3.5c0.4,0,0.7,0.3,0.8,0.7l0,0.3c0.2,1.8,0.3,3.6,0.3,5.5l0,1
			C20.3,20.5,20.3,20.6,20.2,20.6C20.2,20.6,20.2,20.6,20.2,20.6z"/>
	</g>
	<g>
		<path class="st0" d="M20.3,22h-5.8c-0.3,0-0.5-0.2-0.5-0.5v-0.4c0-0.3,0.2-0.5,0.5-0.5h5.8c0.3,0,0.5,0.2,0.5,0.5v0.4
			C20.8,21.8,20.6,22,20.3,22z M14.6,20.9c-0.1,0-0.2,0.1-0.2,0.2v0.4c0,0.1,0.1,0.2,0.2,0.2h5.8c0.1,0,0.2-0.1,0.2-0.2v-0.4
			c0-0.1-0.1-0.2-0.2-0.2H14.6z"/>
	</g>
	<g>
		<path class="st0" d="M20.5,15.8C20.5,15.8,20.5,15.8,20.5,15.8c-0.1-0.1-0.2-0.1-0.1-0.2c0.2-0.4,0.4-0.8,0.6-1.2l-1.1,0
			c-0.1,0-0.1-0.1-0.1-0.1c0-0.1,0.1-0.1,0.1-0.1c0,0,0,0,0,0l1.3,0c0,0,0.1,0,0.1,0.1s0,0.1,0,0.1c-0.1,0.5-0.4,1-0.7,1.5
			C20.6,15.8,20.6,15.8,20.5,15.8z"/>
	</g>
	<g>
		<path class="st0" d="M18.4,12.8c-0.1,0-0.1-0.1-0.1-0.1v-0.1c0-0.1,0-0.1-0.1-0.1h-1.4c-0.1,0-0.1,0-0.1,0.1v0.1
			c0,0.1-0.1,0.1-0.1,0.1s-0.1-0.1-0.1-0.1v-0.1c0-0.2,0.2-0.4,0.4-0.4h1.4c0.2,0,0.4,0.2,0.4,0.4v0.1
			C18.5,12.8,18.4,12.8,18.4,12.8z"/>
	</g>
	<g>
		<path class="st0" d="M17.5,18.9L17.5,18.9c-0.3,0-0.6-0.2-0.6-0.5v-3.2c0-0.3,0.2-0.5,0.5-0.5h0c0.3,0,0.5,0.2,0.5,0.5v3.2
			C18,18.7,17.8,18.9,17.5,18.9z M17.4,14.9c-0.1,0-0.3,0.1-0.3,0.3v3.2c0,0.1,0.1,0.3,0.3,0.3h0c0.1,0,0.3-0.1,0.3-0.3v-3.2
			C17.7,15,17.6,14.9,17.4,14.9L17.4,14.9z"/>
	</g>
	<g>
		<path class="st0" d="M19.9,14.4H15c-0.1,0-0.1-0.1-0.1-0.1s0.1-0.1,0.1-0.1h4.8c0.1,0,0.1,0.1,0.1,0.1S19.9,14.4,19.9,14.4z"/>
	</g>
	<g>
		<path class="st0" d="M14.6,19.1h-0.5c-0.3,0-0.6-0.3-0.6-0.6v-3.8c0-0.3,0.3-0.6,0.6-0.6H15c0.1,0,0.1,0.1,0.1,0.1
			c0,0.1-0.1,0.1-0.1,0.1h-0.9c-0.2,0-0.3,0.1-0.3,0.3v3.8c0,0.2,0.1,0.3,0.3,0.3h0.5c0.1,0,0.1,0.1,0.1,0.1S14.6,19.1,14.6,19.1z"
			/>
	</g>
</g>
<g>
	<g>
		<g>
			<path class="st0" d="M7.5,21.9c-1,0-1.9-0.2-2.9-0.5C4.3,21.3,4,20.9,4,20.5v-8.6c0-0.3,0.2-0.5,0.4-0.7c0.9-0.5,2-0.8,3.1-0.8
				c1.1,0,2.1,0.3,3.1,0.8c0.2,0.1,0.4,0.4,0.4,0.7v8.6c0,0.4-0.3,0.8-0.6,0.9C9.5,21.7,8.5,21.9,7.5,21.9z M7.5,10.8
				c-1,0-2,0.3-2.9,0.8c-0.1,0.1-0.2,0.2-0.2,0.3v8.6c0,0.2,0.2,0.5,0.4,0.6c1.8,0.7,3.7,0.7,5.5,0l0,0c0.2-0.1,0.4-0.3,0.4-0.6
				v-8.6c0-0.1-0.1-0.3-0.2-0.3C9.5,11,8.5,10.8,7.5,10.8z"/>
		</g>
		<g>
			<path class="st0" d="M7.5,14.5c-0.7,0-1.3-0.6-1.3-1.3c0-0.7,0.6-1.3,1.3-1.3s1.3,0.6,1.3,1.3C8.8,14,8.2,14.5,7.5,14.5z
				 M7.5,12.4c-0.5,0-0.9,0.4-0.9,0.9s0.4,0.9,0.9,0.9c0.5,0,0.9-0.4,0.9-0.9S8,12.4,7.5,12.4z"/>
		</g>
		<g>
			<path class="st0" d="M8.1,19.9H7c-0.1,0-0.2-0.1-0.2-0.2c0-0.1,0.1-0.2,0.2-0.2h1.1c0.1,0,0.2,0.1,0.2,0.2
				C8.2,19.8,8.2,19.9,8.1,19.9z"/>
		</g>
		<g>
			<path class="st0" d="M8.9,23.1H6.2c-0.2,0-0.4-0.1-0.5-0.3l-0.2-0.6c0-0.1,0-0.2,0.1-0.2c0.1,0,0.2,0,0.2,0.1L6,22.6
				c0,0.1,0.1,0.1,0.2,0.1h2.7c0.1,0,0.1,0,0.2-0.1l0.2-0.6c0-0.1,0.1-0.1,0.2-0.1c0.1,0,0.1,0.1,0.1,0.2l-0.2,0.6
				C9.3,23,9.1,23.1,8.9,23.1z"/>
		</g>
	</g>
	<g>
		<path class="st0" d="M7.5,13.5C7.5,13.5,7.5,13.4,7.5,13.5c-0.2-0.1-0.2-0.2-0.2-0.3l0.2-0.5c0-0.1,0.2-0.1,0.2-0.1
			c0.1,0,0.1,0.2,0.1,0.2l-0.2,0.5C7.7,13.4,7.6,13.5,7.5,13.5z"/>
	</g>
</g>
<g>
	<g>
		<path class="st0" d="M16.4,6.7c-0.1,0-0.1,0-0.1-0.1l-0.4-2.3c0-0.1,0-0.1,0.1-0.1c0.1,0,0.1,0,0.1,0.1l0.4,2.3
			C16.5,6.6,16.5,6.6,16.4,6.7C16.4,6.7,16.4,6.7,16.4,6.7z"/>
	</g>
	<g>
		<path class="st0" d="M19.4,7.2h-3c-0.1,0-0.1-0.1-0.1-0.1s0.1-0.1,0.1-0.1h2.9l0.4-2.2c0-0.1,0.1-0.1,0.1-0.1
			C20,4.7,20,4.7,20,4.8l-0.4,2.3C19.6,7.1,19.5,7.2,19.4,7.2z"/>
	</g>
	<g>
		<path class="st0" d="M20.2,4.3h-4.4c-0.2,0-0.3-0.1-0.3-0.3V3.4c0-0.2,0.1-0.3,0.3-0.3h4.4c0.2,0,0.3,0.1,0.3,0.3V4
			C20.5,4.2,20.3,4.3,20.2,4.3z M15.8,3.3C15.7,3.3,15.7,3.3,15.8,3.3L15.7,4c0,0.1,0,0.1,0.1,0.1h4.4c0.1,0,0.1,0,0.1-0.1V3.4
			c0-0.1,0-0.1-0.1-0.1H15.8z"/>
	</g>
	<g>
		<path class="st0" d="M15.9,8.5C15.9,8.5,15.9,8.5,15.9,8.5c-0.1,0-0.1-0.1-0.1-0.2c0.1-0.5,0.3-0.9,0.6-1.3c0-0.1,0.1-0.1,0.2,0
			c0.1,0,0.1,0.1,0,0.2c-0.2,0.4-0.4,0.8-0.6,1.3C16,8.4,16,8.5,15.9,8.5z"/>
	</g>
	<g>
		<path class="st0" d="M20.3,11h-2c-0.1,0-0.1-0.1-0.1-0.1c0-0.1,0.1-0.1,0.1-0.1h1.9V10c0-1-0.3-2.1-0.8-2.9c0-0.1,0-0.1,0-0.2
			c0.1,0,0.1,0,0.2,0c0.6,0.9,0.9,2,0.9,3v0.9C20.4,11,20.4,11,20.3,11z"/>
	</g>
	<g>
		<path class="st0" d="M18,9.6c-0.7,0-1.2-0.5-1.2-1.2v-1c0-0.1,0.1-0.1,0.1-0.1S17,7.4,17,7.5v1c0,0.5,0.4,1,1,1c0.5,0,1-0.4,1-1
			v-1c0-0.1,0.1-0.1,0.1-0.1s0.1,0.1,0.1,0.1v1C19.2,9.1,18.6,9.6,18,9.6z"/>
	</g>
	<g>
		<path class="st0" d="M18.5,8.5h-1c-0.1,0-0.1-0.1-0.1-0.1V7.5c0-0.1,0.1-0.1,0.1-0.1h1c0.1,0,0.1,0.1,0.1,0.1v0.8
			C18.6,8.4,18.5,8.5,18.5,8.5z M17.6,8.2h0.8V7.6h-0.8V8.2z"/>
	</g>
	<g>
		<g>
			<path class="st0" d="M17.3,11h-4.6c-0.1,0-0.2,0-0.2-0.1c-0.1-0.1-0.1-0.2,0-0.3l0.3-0.7c0.1-0.2,0.3-0.3,0.6-0.3h3.3
				c0.3,0,0.5,0.1,0.6,0.3l0.3,0.7c0,0.1,0,0.2,0,0.3C17.5,11,17.4,11,17.3,11z M13.4,9.9c-0.2,0-0.4,0.1-0.4,0.2l-0.3,0.7
				c0,0,0,0,0,0s0,0,0,0h4.6c0,0,0,0,0,0c0,0,0,0,0,0l-0.3-0.7c0-0.1-0.2-0.2-0.4-0.2H13.4z"/>
		</g>
		<g>
			<path class="st0" d="M16.8,9.6c0,0-0.1,0-0.1-0.1c-0.1-0.2-0.2-0.2-0.4-0.2c0,0,0,0-0.1,0c0,0-0.1,0-0.1,0c0,0-0.1-0.1-0.1-0.1
				c0,0,0,0,0-0.1c0-0.1-0.1-0.1-0.1-0.1c-0.1,0-0.1,0-0.2,0c0,0,0,0-0.1,0c0,0-0.1,0-0.1,0c0,0-0.1,0-0.1-0.1c0,0,0,0,0,0
				C15.5,9,15.3,9,15.2,9c0,0-0.1,0.1-0.1,0.1c0,0,0,0-0.1,0.1c0,0-0.1,0-0.1,0c-0.1-0.1-0.2-0.1-0.3,0c0,0,0,0-0.1,0
				c0,0-0.1,0-0.1,0c0,0-0.1,0-0.1-0.1c-0.1-0.1-0.2-0.2-0.3-0.2c-0.2,0-0.4,0.2-0.4,0.4c0,0,0,0.1,0,0.1c0,0,0,0.1,0,0.1
				c0,0,0,0.1-0.1,0.1c0,0-0.1,0-0.1,0.1c-0.1,0-0.1,0-0.2,0c0-0.1,0-0.1,0-0.2c0,0,0.1,0,0.1-0.1c0,0,0-0.1,0-0.1
				c0-0.3,0.3-0.6,0.6-0.6c0.2,0,0.4,0.1,0.5,0.3c0.1-0.1,0.3-0.1,0.4,0c0,0,0.1-0.1,0.1-0.1c0.2-0.1,0.4,0,0.5,0.1c0,0,0,0,0,0
				c0.1,0,0.2-0.1,0.3,0c0.1,0,0.2,0.1,0.2,0.2c0.3-0.1,0.5,0,0.7,0.3C16.9,9.5,16.9,9.5,16.8,9.6C16.8,9.6,16.8,9.6,16.8,9.6z"/>
		</g>
		<g>
			<path class="st0" d="M19.7,6C19.6,6,19.6,6,19.7,6c-0.1-0.1-0.2-0.1-0.3-0.1c0,0-0.1,0-0.1-0.1c0,0,0-0.1,0-0.1c0,0,0-0.1,0-0.1
				c0-0.2-0.2-0.4-0.4-0.4c-0.2,0-0.3,0.1-0.3,0.2c0,0,0,0.1-0.1,0.1c0,0-0.1,0-0.1,0c0,0,0,0-0.1,0c-0.1,0-0.2,0-0.3,0
				c0,0-0.1,0-0.1,0s-0.1,0-0.1-0.1c0,0-0.1-0.1-0.1-0.1c-0.1,0-0.1,0-0.2,0c-0.1,0-0.1,0.1-0.1,0.1c0,0,0,0,0,0c0,0,0,0,0,0
				c0,0,0,0.1-0.1,0.1c0,0-0.1,0-0.1,0c0,0,0,0-0.1,0c-0.1,0-0.1,0-0.2,0C17,5.5,17,5.6,17,5.6c0,0,0,0,0,0.1c0,0,0,0.1-0.1,0.1
				c0,0-0.1,0-0.1,0c0,0,0,0-0.1,0c-0.1-0.1-0.3,0-0.4,0.1c0,0.1-0.1,0.1-0.2,0c-0.1,0-0.1-0.1,0-0.2c0.1-0.2,0.4-0.3,0.6-0.2
				c0-0.1,0.1-0.2,0.2-0.2c0.1,0,0.2,0,0.3,0c0,0,0,0,0,0c0-0.1,0.1-0.1,0.2-0.1c0.1,0,0.2,0,0.3,0c0.1,0,0.1,0.1,0.1,0.1
				c0.1-0.1,0.3-0.1,0.4,0C18.6,5.1,18.8,5,19,5c0.3,0,0.6,0.3,0.6,0.6c0,0,0,0.1,0,0.1c0.1,0,0.1,0.1,0.2,0.1
				C19.8,5.9,19.8,5.9,19.7,6C19.7,6,19.7,6,19.7,6z"/>
		</g>
	</g>
</g>
</svg>
