<svg width="13" height="14" viewBox="0 0 13 14" fill="none" xmlns="http://www.w3.org/2000/svg">
<g clipPath="url(#clip0_704_4685)">
<path d="M12.5428 6.24293H0.556805C0.418138 6.24293 0.298971 6.29276 0.199305 6.39243C0.099638 6.49209 0.0498047 6.61126 0.0498047 6.74993C0.0498047 6.88859 0.099638 7.00776 0.199305 7.10743C0.298971 7.20709 0.418138 7.25693 0.556805 7.25693H12.5428C12.6901 7.25693 12.8115 7.20709 12.9068 7.10743C13.0021 7.00776 13.0498 6.88643 13.0498 6.74343C13.0498 6.60043 13.0021 6.48126 12.9068 6.38593C12.8115 6.29059 12.6901 6.24293 12.5428 6.24293ZM12.5428 2.17393H0.556805C0.418138 2.17393 0.298971 2.22376 0.199305 2.32343C0.099638 2.42309 0.0498047 2.54226 0.0498047 2.68093C0.0498047 2.81959 0.099638 2.94093 0.199305 3.04493C0.298971 3.14893 0.418138 3.20093 0.556805 3.20093H12.5428C12.6815 3.20093 12.8006 3.15109 12.9003 3.05143C13 2.95176 13.0498 2.82826 13.0498 2.68093C13.0498 2.53359 13.0021 2.41226 12.9068 2.31693C12.8115 2.22159 12.6901 2.17393 12.5428 2.17393ZM12.5428 10.2989H0.556805C0.418138 10.2989 0.298971 10.3488 0.199305 10.4484C0.099638 10.5481 0.0498047 10.6673 0.0498047 10.8059C0.0498047 10.9446 0.099638 11.0659 0.199305 11.1699C0.298971 11.2739 0.418138 11.3259 0.556805 11.3259H12.5428C12.6815 11.3259 12.8006 11.2761 12.9003 11.1764C13 11.0768 13.0498 10.9554 13.0498 10.8124C13.0498 10.6694 13 10.5481 12.9003 10.4484C12.8006 10.3488 12.6815 10.2989 12.5428 10.2989Z" fill="white"/>
</g>
<defs>
<clipPath id="clip0_704_4685">
<rect width="13" height="13" fill="white" transform="matrix(1 0 0 -1 0 13.25)"/>
</clipPath>
</defs>
</svg>
