<?xml version="1.0" encoding="utf-8"?>
<!-- Generator: Adobe Illustrator 23.0.1, SVG Export Plug-In . SVG Version: 6.00 Build 0)  -->
<svg version="1.1" id="Layer_1" xmlns="http://www.w3.org/2000/svg" xmlns:xlink="http://www.w3.org/1999/xlink" x="0px" y="0px"
	 viewBox="0 0 24 24" style="enable-background:new 0 0 24 24;" xml:space="preserve">
<style type="text/css">
	.st0{fill:#58595B;}
</style>
<g>
	<g>
		<g>
			<path class="st0" d="M21.7,16.9H2.3c-0.6,0-1.1-0.5-1.1-1.1V5.3c0-0.6,0.5-1.1,1.1-1.1h19.5c0.6,0,1.1,0.5,1.1,1.1v10.6
				C22.8,16.5,22.3,16.9,21.7,16.9z M2.3,4.9C2,4.9,1.8,5.1,1.8,5.3v10.6c0,0.2,0.2,0.4,0.4,0.4h19.5c0.2,0,0.4-0.2,0.4-0.4V5.3
				c0-0.2-0.2-0.4-0.4-0.4H2.3z"/>
		</g>
		<g>
			<path class="st0" d="M22.5,14.6h-21c-0.2,0-0.3-0.1-0.3-0.3s0.1-0.3,0.3-0.3h21c0.2,0,0.3,0.1,0.3,0.3S22.7,14.6,22.5,14.6z"/>
		</g>
		<g>
			<g>
				<path class="st0" d="M18.7,19.7H5.3c-0.2,0-0.3-0.1-0.3-0.3s0.1-0.3,0.3-0.3h13.5c0.2,0,0.3,0.1,0.3,0.3S18.9,19.7,18.7,19.7z"
					/>
			</g>
			<g>
				<g>
					<path class="st0" d="M10.4,18.7c-0.2,0-0.3-0.1-0.3-0.3v-1.5c0-0.2,0.1-0.3,0.3-0.3c0.2,0,0.3,0.1,0.3,0.3v1.5
						C10.7,18.6,10.5,18.7,10.4,18.7z"/>
				</g>
				<g>
					<path class="st0" d="M13.6,19.7c-0.2,0-0.3-0.1-0.3-0.3v-1.7c0-0.2,0.1-0.3,0.3-0.3c0.2,0,0.3,0.1,0.3,0.3v1.7
						C13.9,19.6,13.8,19.7,13.6,19.7z"/>
				</g>
			</g>
		</g>
	</g>
</g>
</svg>
