<svg width="19" height="18" viewBox="0 0 19 18" fill="none" xmlns="http://www.w3.org/2000/svg">
<g clip-path="url(#clip0_704_4659)">
<path d="M15.9789 15.0301C15.8109 14.1061 15.4989 13.2421 15.0429 12.4381C14.5869 11.6341 13.9989 10.9441 13.2789 10.3681C12.6549 9.8281 11.9229 9.3961 11.0829 9.0721C11.6589 8.6281 12.1149 8.0791 12.4509 7.4251C12.7869 6.7711 12.9549 6.0721 12.9549 5.3281C12.9549 4.4641 12.7449 3.6691 12.3249 2.9431C11.9049 2.2171 11.3319 1.6441 10.6059 1.2241C9.87994 0.804102 9.08494 0.594103 8.22094 0.594103C7.35694 0.594103 6.56194 0.804102 5.83594 1.2241C5.10994 1.6441 4.53694 2.2171 4.11694 2.9431C3.69694 3.6691 3.48694 4.4641 3.48694 5.3281C3.48694 6.0721 3.65494 6.7711 3.99094 7.4251C4.32694 8.0791 4.78294 8.6281 5.35894 9.0721C4.55494 9.4081 3.82894 9.8401 3.18094 10.3681C2.48494 10.9441 1.90294 11.6281 1.43494 12.4201C0.966937 13.2121 0.648937 14.0521 0.480937 14.9401L0.210938 16.3621L1.75894 16.6681L2.04694 15.2641C2.17894 14.5321 2.42794 13.8541 2.79394 13.2301C3.15994 12.6061 3.63094 12.0571 4.20694 11.5831C4.78294 11.1091 5.41594 10.7491 6.10594 10.5031C6.79594 10.2571 7.50094 10.1341 8.22094 10.1341C8.94094 10.1341 9.65494 10.2601 10.3629 10.5121C11.0709 10.7641 11.7009 11.1181 12.2529 11.5741C12.8289 12.0541 13.3029 12.6151 13.6749 13.2571C14.0469 13.8991 14.2929 14.5801 14.4129 15.3001L14.6829 16.7041L16.2129 16.3981L15.9789 15.0301ZM8.22094 2.1601C8.79694 2.1601 9.32794 2.3011 9.81394 2.5831C10.2999 2.8651 10.6839 3.2491 10.9659 3.7351C11.2479 4.2211 11.3889 4.7521 11.3889 5.3281C11.3889 5.9041 11.2479 6.4351 10.9659 6.9211C10.6839 7.4071 10.2999 7.7911 9.81394 8.0731C9.32794 8.3551 8.79694 8.4961 8.22094 8.4961C7.64494 8.4961 7.11394 8.3551 6.62794 8.0731C6.14194 7.7911 5.75794 7.4071 5.47594 6.9211C5.19394 6.4351 5.05294 5.9041 5.05294 5.3281C5.05294 4.7521 5.19394 4.2211 5.47594 3.7351C5.75794 3.2491 6.14194 2.8651 6.62794 2.5831C7.11394 2.3011 7.64494 2.1601 8.22094 2.1601Z" fill="#3E445A"/>
</g>
<defs>
<clipPath id="clip0_704_4659">
<rect width="18" height="18" fill="white" transform="matrix(1 0 0 -1 0.160156 18)"/>
</clipPath>
</defs>
</svg>
