<svg width="21" height="30" viewBox="0 0 21 30" fill="none" xmlns="http://www.w3.org/2000/svg">
<g clip-path="url(#clip0_716_5579)">
<path d="M20.1196 11.72L18.8796 6.72001C18.8396 6.57334 18.763 6.45667 18.6496 6.37001C18.5363 6.28334 18.4063 6.24001 18.2596 6.24001H2.01965C1.87298 6.24001 1.74298 6.28667 1.62965 6.38001C1.51632 6.47334 1.44632 6.58668 1.41965 6.72001L0.159648 11.72C0.146315 11.76 0.139648 11.8133 0.139648 11.88C0.139648 12.3867 0.252982 12.8633 0.479648 13.31C0.706315 13.7567 1.01298 14.1267 1.39965 14.42V23.12C1.39965 23.2933 1.45965 23.4433 1.57965 23.57C1.69965 23.6967 1.84632 23.76 2.01965 23.76H8.25965C8.43298 23.76 8.58298 23.6967 8.70965 23.57C8.83632 23.4433 8.89965 23.2933 8.89965 23.12V18.74H11.3996V23.12C11.3996 23.2933 11.4596 23.4433 11.5796 23.57C11.6996 23.6967 11.8463 23.76 12.0196 23.76H18.2596C18.433 23.76 18.583 23.6967 18.7096 23.57C18.8363 23.4433 18.8996 23.2933 18.8996 23.12V14.42C19.2863 14.1267 19.5896 13.7567 19.8096 13.31C20.0296 12.8633 20.1396 12.3867 20.1396 11.88C20.1396 11.8133 20.133 11.76 20.1196 11.72ZM17.6396 22.5H12.6396V18.12C12.6396 17.9467 12.5796 17.8 12.4596 17.68C12.3396 17.56 12.193 17.5 12.0196 17.5H8.25965C8.08632 17.5 7.93965 17.56 7.81965 17.68C7.69965 17.8 7.63965 17.9467 7.63965 18.12V22.5H2.63965V14.94C2.79965 14.98 2.95298 15 3.09965 15C3.56631 15 4.00631 14.8933 4.41965 14.68C4.83298 14.4667 5.17965 14.1733 5.45965 13.8C5.73965 14.1733 6.08298 14.4667 6.48965 14.68C6.89632 14.8933 7.33298 15 7.79965 15C8.26631 15 8.70298 14.8933 9.10965 14.68C9.51631 14.4667 9.85965 14.1733 10.1396 13.8C10.4196 14.1733 10.763 14.4667 11.1696 14.68C11.5763 14.8933 12.013 15 12.4796 15C12.9463 15 13.383 14.8933 13.7896 14.68C14.1963 14.4667 14.5396 14.1733 14.8196 13.8C15.113 14.1733 15.463 14.4667 15.8696 14.68C16.2763 14.8933 16.713 15 17.1796 15C17.3263 15 17.4796 14.98 17.6396 14.94V22.5ZM17.1796 13.74C16.6996 13.74 16.293 13.5567 15.9596 13.19C15.6263 12.8233 15.4596 12.3867 15.4596 11.88C15.4596 11.7067 15.3963 11.5567 15.2696 11.43C15.143 11.3033 14.993 11.24 14.8196 11.24C14.6463 11.24 14.4996 11.3033 14.3796 11.43C14.2596 11.5567 14.1996 11.7067 14.1996 11.88C14.1996 12.3867 14.033 12.8233 13.6996 13.19C13.3663 13.5567 12.9596 13.74 12.4796 13.74C11.9996 13.74 11.593 13.5567 11.2596 13.19C10.9263 12.8233 10.7596 12.3867 10.7596 11.88C10.7596 11.7067 10.6996 11.5567 10.5796 11.43C10.4596 11.3033 10.313 11.24 10.1396 11.24C9.96632 11.24 9.81965 11.3033 9.69965 11.43C9.57965 11.5567 9.51965 11.7067 9.51965 11.88C9.51965 12.3867 9.34965 12.8233 9.00965 13.19C8.66965 13.5567 8.26631 13.74 7.79965 13.74C7.33298 13.74 6.92965 13.5567 6.58965 13.19C6.24965 12.8233 6.07965 12.3867 6.07965 11.88C6.07965 11.7067 6.01965 11.5567 5.89965 11.43C5.77965 11.3033 5.63298 11.24 5.45965 11.24C5.28631 11.24 5.13631 11.3033 5.00965 11.43C4.88298 11.5567 4.81965 11.7067 4.81965 11.88C4.81965 12.3867 4.65298 12.8233 4.31965 13.19C3.98632 13.5567 3.58298 13.74 3.10965 13.74C2.63632 13.74 2.23632 13.5633 1.90965 13.21C1.58298 12.8567 1.41298 12.4333 1.39965 11.94L2.49965 7.50001H17.7796L18.8996 11.94C18.873 12.4467 18.693 12.8733 18.3596 13.22C18.0263 13.5667 17.633 13.74 17.1796 13.74Z" fill="white"/>
</g>
<defs>
<clipPath id="clip0_716_5579">
<rect width="20" height="20" fill="white" transform="matrix(1 0 0 -1 0.0898438 25)"/>
</clipPath>
</defs>
</svg>
